# xmcd
#
# Track frame offsets:
#	150
#	16003
#	32822
#	48564
#	68151
#	80611
#	94532
#	113097
#	127305
#	144248
#	158636
#
# Disc length: 2288 seconds
#
# Revision: 1
# Processed by: cddbd v1.5.1PL0 Copyright (c) Steve Scherf et al.
# Submitted via: EasyCDDAExtractor 8.2.1.1
#
DISCID=8908ee0b
DTITLE=Los Lobos - This Time
DYEAR=1999
DGENRE=Blues
TTITLE0=This Time
TTITLE1=Oh, Yeah
TTITLE2=Viking
TTITLE3=High Places
TTITLE4=Cumbia Raza
TTITLE5=Runaway With You
TTITLE6=Corazon
TTITLE7=Some Say Some Do
TTITLE8=Turn Around
TTITLE9=La Playa
TTITLE10=Why We Wish
EXTD=
EXTT0=
EXTT1=
EXTT2=
EXTT3=
EXTT4=
EXTT5=
EXTT6=
EXTT7=
EXTT8=
EXTT9=
EXTT10=
PLAYORDER=
